inDegrees=no
num_controls=7
num_derivatives=13
num_iterations=189
num_multipliers=7
num_parameters=0
num_slacks=7
num_states=26
objective=0.494037
objective_accelerations=0.011007
objective_balance=0.003923
objective_effort=0.016968
objective_height=0.360946
objective_ligament=0.101193
solver_duration=2232.628478
status=Solve_Succeeded
success=true
DataType=double
version=3
OpenSimVersion=4.5
endheader
time	/jointset/ground_pelvis/pelvis_tilt/value	/jointset/ground_pelvis/pelvis_tx/value	/jointset/ground_pelvis/pelvis_ty/value	/jointset/hip_l/hip_flexion_l/value	/jointset/hip_l/hip_adduction_l/value	/jointset/hip_l/hip_rotation_l/value	/jointset/back/lumbar_extension/value	/jointset/patellofemoral_l/patellar_flexion_l/value	/jointset/knee_l/knee_flexion_l/value	/jointset/knee_l/knee_adduction_l/value	/jointset/knee_l/knee_rotation_l/value	/jointset/ankle_l/ankle_angle_l/value	/jointset/subtalar_l/subtalar_angle_l/value	/jointset/ground_pelvis/pelvis_tilt/speed	/jointset/ground_pelvis/pelvis_tx/speed	/jointset/ground_pelvis/pelvis_ty/speed	/jointset/hip_l/hip_flexion_l/speed	/jointset/hip_l/hip_adduction_l/speed	/jointset/hip_l/hip_rotation_l/speed	/jointset/back/lumbar_extension/speed	/jointset/patellofemoral_l/patellar_flexion_l/speed	/jointset/knee_l/knee_flexion_l/speed	/jointset/knee_l/knee_adduction_l/speed	/jointset/knee_l/knee_rotation_l/speed	/jointset/ankle_l/ankle_angle_l/speed	/jointset/subtalar_l/subtalar_angle_l/speed	/forceset/tau_hip_flexion_l	/forceset/tau_hip_adduction_l	/forceset/tau_hip_rotation_l	/forceset/tau_knee_flexion_l	/forceset/tau_ankle_angle_l	/forceset/tau_subtalar_angle_l	/forceset/tau_lumbar_extension	lambda_cid13_p0	lambda_cid13_p1	lambda_cid13_p2	lambda_cid13_p3	lambda_cid13_p4	lambda_cid13_p5	lambda_cid14_p0	/jointset/ground_pelvis/pelvis_tilt/accel	/jointset/ground_pelvis/pelvis_tx/accel	/jointset/ground_pelvis/pelvis_ty/accel	/jointset/hip_l/hip_flexion_l/accel	/jointset/hip_l/hip_adduction_l/accel	/jointset/hip_l/hip_rotation_l/accel	/jointset/back/lumbar_extension/accel	/jointset/patellofemoral_l/patellar_flexion_l/accel	/jointset/knee_l/knee_flexion_l/accel	/jointset/knee_l/knee_adduction_l/accel	/jointset/knee_l/knee_rotation_l/accel	/jointset/ankle_l/ankle_angle_l/accel	/jointset/subtalar_l/subtalar_angle_l/accel	gamma_cid13_p0	gamma_cid13_p1	gamma_cid13_p2	gamma_cid13_p3	gamma_cid13_p4	gamma_cid13_p5	gamma_cid14_p0
1.5	0.07520643922347993	-0.0001435054745709311	0.9216632690061899	0.3067188749981579	-0.2389994338495323	-0.3119045825333822	-0.7670677781166881	0.3066012707081697	0.3066012707081924	-0.03623112629743817	-0.1745291703735549	-0.01698867650314105	0.053438805105728	0.2517619174874479	0.2095766973297566	0.1166842882675918	-0.9527743376049856	0.1179306846731919	-0.231996595969036	0.8469934157070007	-0.7038502330175339	-0.7038502330176243	0.01919913621882498	-1.850629545147273e-05	0.01049450870571832	0.1297001618161469	-0.1469582934288124	0.01685549460601411	-0.007530570470564106	-0.103462072233507	0.09282263856807337	0.03298254264805846	0.2498520141555459	-14.48219905037399	-13.99600514240786	4.298437486140245	-0.8490446787000759	-693.5324659401489	-81.8509534763925	-23.45092621070538	-0.2912853612617418	0.3424818107338273	-0.1307547292207423	-0.2202946837311829	-0.02815299587497571	-0.03997455472725322	1.443499792286646	-0.3220162255371652	-0.3220162255371509	-0.350067859148011	-0.00068456380444971	0.1490661614024374	0.03454930975374363	2.121923712731661e-08	8.230498758314293e-09	-6.91280741843825e-08	-7.022196852273971e-09	3.593904539534444e-08	-2.928175595236691e-10	1.341527563200588e-08
1.51	0.07770938450316008	0.001969172498987481	0.9228233932361796	0.297180855551448	-0.2378219306813384	-0.3142262074685569	-0.7585269890012322	0.2995474328086717	0.2995474328087058	-0.03605727450797685	-0.174529363406406	-0.01687634469180956	0.05473709837692599	0.2488062028722021	0.212936496667378	0.1153206324620142	-0.954723336867684	0.1175453473856361	-0.2322999639077107	0.8610457947862479	-0.7068158307578171	-0.7068158307580144	0.0155503536956982	-1.927575068123968e-05	0.01197975058831316	0.1299361277821381	-0.1406390480782752	0.01534473291672272	-0.007467951113194543	-0.1047496551650478	0.09438342494981497	0.03159006961555132	0.2440336440930305	-13.94944443660491	-13.49501563371537	4.230536758276967	-0.875476196646695	-691.8321574711327	-81.68638258160395	-23.38820987038373	-0.3008530115681606	0.3293673034661162	-0.1421502957974453	-0.1662676217094846	-0.04741448534419543	-0.02124080164121982	1.368315076048653	-0.2686068117196305	-0.2686068117356701	-0.3754136230123492	0.0003373627806781883	0.1494398426911884	0.01477007063459678	2.052159258826174e-08	1.521897673897892e-08	-6.703441129109576e-08	-7.616865983284687e-09	4.357151106755713e-08	2.693378271648374e-10	1.341207745488887e-08
1.52	0.08018214493670468	0.004114776127560079	0.9239692850501993	0.2876265330972769	-0.2366490189640495	-0.3165500106607593	-0.7498492344729227	0.2924669838790819	0.2924669838791263	-0.03592053657857047	-0.1745295420339767	-0.01674892313345157	0.05603708127390648	0.2457249482604716	0.2161618283325937	0.1138378050735869	-0.9560349390971949	0.117012394492148	-0.2324322473745312	0.874386498277692	-0.7091724390359303	-0.7091724390362345	0.01177636420787814	-1.562523939420784e-05	0.01351245811103526	0.130038086972641	-0.1343198027277363	0.0138339712274307	-0.00740533175582363	-0.1060372380965883	0.0959442113315563	0.0301975965830434	0.2382152740305167	-13.41874567772688	-12.99327789105418	4.16207332899807	-0.9182795413418083	-690.1620128414424	-81.529252491522	-23.31969145913115	-0.3163933605586963	0.3155882762526788	-0.1545890457906856	-0.0928152770937439	-0.05767611706142337	-0.005757660356394854	1.301164674726064	-0.2002183331031948	-0.2002183331031921	-0.3751092520866664	0.0001994294989107858	0.158559289427895	0.007747954656096472	1.967192364077716e-08	2.263977154948934e-08	-6.462873767198397e-08	-8.112713036197785e-09	5.134826551702728e-08	8.85852319909284e-10	1.338176500742684e-08
1.53	0.08262350838426999	0.006291912462282895	0.9250997696728482	0.2780622463972761	-0.2354821716620437	-0.3188743480910107	-0.741041806013756	0.2853659552096733	0.285365955209664	-0.0358221526984715	-0.1745297054293419	-0.01660601203880194	0.05733738837573497	0.2425277887492244	0.2192378277838027	0.1122400094977398	-0.9567102177727241	0.1163316943318808	-0.2324062269193673	0.8869661539538458	-0.7109285847777246	-0.7109285847777308	0.007880738793470317	-1.617422664736618e-05	0.0150733563576149	0.1299984476646186	-0.1278467961528244	0.01225577582816893	-0.007339565006262819	-0.1074667496733925	0.09756172242738259	0.02874749151545345	0.2322334632509095	-12.87767703040647	-12.46730607285209	4.088580957335995	-0.9048119614321912	-688.5085044070792	-81.35568516008222	-23.24535924345985	-0.3243694515318852	0.2994624127867422	-0.1652286025080089	-0.03805492201565848	-0.07707641318744775	0.01114700927045503	1.216410073785419	-0.1476088427090897	-0.1476088426643944	-0.399736706311989	-6.30307334945418e-05	0.1553965244345014	-0.01355133167724639	1.866072875933603e-08	3.051990299171091e-08	-6.189155265668304e-08	-8.503561631132169e-09	5.927832679233349e-08	1.560123362838166e-09	1.332264364772322e-08
1.54	0.08503230179569736	0.008498980118164152	0.9262137055819335	0.2684945727586735	-0.234322893251176	-0.3211975522945469	-0.7321125721858828	0.2782505058532488	0.2782505058531887	-0.03576331457655566	-0.1745298505081588	-0.01644738367525429	0.05863655279285409	0.2392109410330125	0.2221480925642816	0.1105280623608396	-0.9567123268175786	0.1154986162644901	-0.2322056020314964	0.8987475720190157	-0.7120565764391809	-0.7120565764388892	0.003867212571296841	-1.196192974309835e-05	0.0166559118906547	0.1298095500307628	-0.1213737895779095	0.01067758042890711	-0.007273798256701214	-0.1088962612501956	0.09917923352320898	0.02729738644786349	0.2262516524713044	-12.33810854317297	-11.94050690672526	4.014311764030294	-0.9087601972513206	-686.876157988248	-81.1872426079327	-23.16521936341633	-0.3403310015516372	0.2824413421066436	-0.1774193580013099	0.04181864904121307	-0.08815169848611169	0.02916322618501735	1.14151715252931	-0.07458751703561819	-0.07458751703561729	-0.3986894136397964	0.001151686330396746	0.1628907467199354	-0.02210371051057189	1.757841292956572e-08	3.876966712066224e-08	-5.896006500189322e-08	-8.834044704024319e-09	6.72200120334196e-08	2.342927018696469e-09	1.326892180382547e-08
